<svg xmlns="http://www.w3.org/2000/svg" viewBox="0 0 100 100" width="100" height="100">
  <rect width="100" height="100" rx="20" fill="#040D26"/>
  <!-- Disney iconic stylized D and star arc -->
  <path d="M22 68V24c7-1 18-2 26-2 18 0 28 8 28 22 0 15-11 25-28 25-8 0-17-1-26-1zm11-9c5 1 11 1 15 1 12 0 17-6 17-15 0-9-6-14-17-14-5 0-10 1-15 1v27z" fill="#FFFFFF"/>
  <path d="M26 22c22-9 48-2 54 22 1 3-3 4-4 1-5-20-29-27-50-23z" fill="#00D2FF"/>
  <circle cx="80" cy="45" r="2.5" fill="#FFFFFF"/>
</svg>
